<?xml version="1.0" encoding="UTF-8" standalone="no"?>
<svg xmlns="http://www.w3.org/2000/svg" width="620" height="820" viewBox="0 0 620 820" version="1.1">
  <path d="m 312.31356,395.96693 c 14.18552,0.29555 29.92186,-1.17906 38.12252,14.18392 8.20066,15.36299 -27.11807,32.20998 -38.12252,32.80109 -11.00441,0.59108 -31.84289,-13.00253 -37.23585,-29.25452 -5.39295,-16.25197 23.04722,-18.02604 37.23585,-17.73049 z m -17.73128,292.54815 h 46.98815 L 319.40436,616.708" />
  <path d="m 306.10786,397.74022 c -23.93936,-5.31908 -33.68614,12.41063 -33.68614,12.41063 L 142.09149,531.60286 c 0,0 -85.554758,81.55857 -32.80342,157.79886 52.75132,76.24029 141.40697,48.7575 176.42857,20.38885 35.02162,-28.36864 24.82365,-22.16607 24.82365,-22.16607 0,0 19.50536,-284.56522 -4.43243,-289.88428 z" />
  <path d="m 317.3426,398.62686 c 23.937,-5.31987 33.68929,12.41063 33.68929,12.41063 L 481.35583,532.4895 c 0,0 85.55474,81.55857 32.80342,157.79808 -52.75133,76.2395 -141.40697,48.75828 -176.4278,20.38964 -35.02082,-28.36865 -24.82442,-22.16214 -24.82442,-22.16214 0,0 -19.50221,-284.56993 4.43557,-289.88822 z" />
  <path d="M 36.589629,281.60729 C -9.5126634,306.87267 2.8995495,388.42889 24.177406,426.99471 45.455273,465.56054 97.765639,510.76989 142.09149,489.04713 186.41735,467.3244 179.32736,383.55236 156.277,348.09214 135.88814,299.33778 82.69113,256.3419 36.589629,281.60729 Z" />
  <path d="m 187.30714,119.37678 c -57.62864,13.29729 -57.62864,90.42343 -47.87557,141.84087 2.65992,31.91284 50.53471,120.12202 102.84272,106.38142 52.30799,-13.74061 54.96792,-89.53757 49.64807,-134.75008 -5.31985,-45.2125 -46.98814,-126.77028 -104.61522,-113.47221 z" />
  <path d="m 435.24253,119.37678 c 57.62786,13.29808 57.62786,90.42422 47.87557,141.84164 -2.65992,31.91286 -50.53471,120.12204 -102.84272,106.38144 -52.308,-13.74061 -54.96793,-89.53836 -49.64807,-134.75087 5.31986,-45.2125 46.98814,-126.77028 104.61522,-113.47221 z" />
  <path d="m 586.34834,281.60729 c 46.1015,25.26538 33.69007,106.8216 12.41221,145.38742 -21.27785,38.56583 -73.58586,83.77518 -117.91487,62.05242 -44.32899,-21.72273 -37.23585,-105.49477 -14.18472,-140.95499 20.39123,-48.75436 73.58587,-91.75024 119.68738,-66.48485 z" />
</svg>
